<svg id="visual" viewBox="0 0 900 600" width="900" height="600" xmlns="http://www.w3.org/2000/svg" xmlns:xlink="http://www.w3.org/1999/xlink" version="1.1"><rect x="0" y="0" width="900" height="600" fill="#001220"></rect><path d="M0 345L37.5 372C75 399 150 453 225 472.7C300 492.3 375 477.7 450 423.2C525 368.7 600 274.3 675 214C750 153.7 825 127.3 862.5 114.2L900 101L900 601L862.5 601C825 601 750 601 675 601C600 601 525 601 450 601C375 601 300 601 225 601C150 601 75 601 37.5 601L0 601Z" fill="#fdf3d7"></path><path d="M0 256L37.5 306.5C75 357 150 458 225 494.3C300 530.7 375 502.3 450 458C525 413.7 600 353.3 675 344.2C750 335 825 377 862.5 398L900 419L900 601L862.5 601C825 601 750 601 675 601C600 601 525 601 450 601C375 601 300 601 225 601C150 601 75 601 37.5 601L0 601Z" fill="#ffd700"></path></svg>